<?xml version="1.0" encoding="UTF-8"?>
<svg version="1.1" xmlns="http://www.w3.org/2000/svg" width="128" height="128">
<path d="M0 0 C0.82004013 -0.00571014 1.64008026 -0.01142029 2.48497009 -0.01730347 C3.38113037 -0.01842133 4.27729065 -0.01953918 5.2006073 -0.02069092 C6.14725754 -0.02565582 7.09390778 -0.03062073 8.06924438 -0.03573608 C11.20573144 -0.05035921 14.34216791 -0.05716007 17.47868347 -0.06268311 C19.65720623 -0.06843454 21.83572898 -0.07419228 24.01425171 -0.07995605 C28.58483618 -0.09046655 33.15540306 -0.09630887 37.72599792 -0.09979248 C43.58042064 -0.10527653 49.4346107 -0.12930259 55.28896046 -0.15776443 C59.79026975 -0.17639544 64.29152307 -0.18159667 68.79286766 -0.18312836 C70.95101379 -0.18615448 73.10915893 -0.19418164 75.26726723 -0.20731354 C78.28819562 -0.22438301 81.30855639 -0.22249141 84.32951355 -0.21600342 C85.21960114 -0.2252182 86.10968872 -0.23443298 87.02674866 -0.243927 C93.54416817 -0.20011708 97.70271796 1.0939085 102.64665222 5.57794189 C106.61574947 9.97613073 109.07419939 13.10185011 109.09959412 19.18128967 C109.10530426 20.0013298 109.1110144 20.82136993 109.11689758 21.66625977 C109.11857437 23.01050018 109.11857437 23.01050018 109.12028503 24.38189697 C109.12524994 25.32854721 109.13021484 26.27519745 109.1353302 27.25053406 C109.14995333 30.38702111 109.15675418 33.52345758 109.16227722 36.65997314 C109.16802866 38.83849591 109.17378639 41.01701865 109.17955017 43.19554138 C109.19006066 47.76612586 109.19590298 52.33669274 109.1993866 56.9072876 C109.20487064 62.76171031 109.22889671 68.61590037 109.25735855 74.47025013 C109.27598956 78.97155942 109.28119079 83.47281274 109.28272247 87.97415733 C109.2857486 90.13230346 109.29377576 92.29044861 109.30690765 94.4485569 C109.32397712 97.46948529 109.32208552 100.48984607 109.31559753 103.51080322 C109.32481232 104.40089081 109.3340271 105.29097839 109.34352112 106.20803833 C109.29971119 112.72545785 108.00568562 116.88400763 103.52165222 121.82794189 C99.12346338 125.79703914 95.99774401 128.25548906 89.91830444 128.28088379 C89.09826431 128.28659393 88.27822418 128.29230408 87.43333435 128.29818726 C86.53717407 128.29930511 85.64101379 128.30042297 84.71769714 128.30157471 C83.77104691 128.30653961 82.82439667 128.31150452 81.84906006 128.31661987 C78.71257301 128.331243 75.57613654 128.33804385 72.43962097 128.34356689 C70.26109821 128.34931833 68.08257546 128.35507606 65.90405273 128.36083984 C61.33346826 128.37135034 56.76290138 128.37719266 52.19230652 128.38067627 C46.3378838 128.38616032 40.48369374 128.41018638 34.62934399 128.43864822 C30.12803469 128.45727923 25.62678138 128.46248046 21.12543678 128.46401215 C18.96729066 128.46703827 16.80914551 128.47506543 14.65103722 128.48819733 C11.63010883 128.5052668 8.60974805 128.50337519 5.58879089 128.49688721 C4.69870331 128.50610199 3.80861572 128.51531677 2.89155579 128.52481079 C-3.62586373 128.48100087 -7.78441352 127.18697529 -12.72834778 122.70294189 C-16.69744502 118.30475306 -19.15589494 115.17903368 -19.18128967 109.09959412 C-19.18699982 108.27955399 -19.19270996 107.45951385 -19.19859314 106.61462402 C-19.199711 105.71846375 -19.20082886 104.82230347 -19.20198059 103.89898682 C-19.2069455 102.95233658 -19.2119104 102.00568634 -19.21702576 101.03034973 C-19.23164889 97.89386268 -19.23844974 94.75742621 -19.24397278 91.62091064 C-19.24972421 89.44238788 -19.25548195 87.26386514 -19.26124573 85.08534241 C-19.27175622 80.51475793 -19.27759854 75.94419105 -19.28108215 71.37359619 C-19.2865662 65.51917348 -19.31059226 59.66498342 -19.33905411 53.81063366 C-19.35768512 49.30932437 -19.36288635 44.80807105 -19.36441803 40.30672646 C-19.36744416 38.14858033 -19.37547131 35.99043518 -19.38860321 33.83232689 C-19.40567268 30.8113985 -19.40378108 27.79103772 -19.39729309 24.77008057 C-19.40650787 23.87999298 -19.41572266 22.9899054 -19.42521667 22.07284546 C-19.38140675 15.55542594 -18.08738118 11.39687615 -13.60334778 6.45294189 C-9.20515894 2.48384465 -6.07943956 0.02539473 0 0 Z " fill="#3156FF" transform="translate(19.040847778320313,-0.14044189453125)"/>
<path d="M0 0 C7.14768726 0.58393722 13.67286107 2.11273325 20.5625 4.0625 C31.21467612 7.00806506 41.89932355 9.77430292 52.625 12.4375 C53.34511261 12.61652863 54.06522522 12.79555725 54.80715942 12.98001099 C58.87064313 13.98990697 62.93492948 14.99650696 67 16 C65.77173335 23.07747616 64.37061021 30.07936893 62.6875 37.0625 C62.3637439 38.41432373 62.3637439 38.41432373 62.03344727 39.79345703 C60.24859546 47.15653636 58.26856313 54.45471072 56.19921875 61.7421875 C54.65214605 67.1925859 53.22601806 72.67396351 51.796875 78.15625 C51 81 51 81 50 83 C44.0475393 82.37342519 38.41653233 81.24355763 32.625 79.75 C31.75359375 79.52892578 30.8821875 79.30785156 29.984375 79.08007812 C23.57373468 77.44025491 17.19836818 75.68663918 10.83105469 73.88696289 C1.9390435 71.38941777 -7.03068675 69.20019688 -16 67 C-16.17730433 62.59365905 -15.62868358 59.13576145 -14.3125 54.9375 C-12.48445037 48.83323535 -10.94104462 42.70655085 -9.5 36.5 C-7.8256321 29.32395479 -5.99672967 22.24499706 -3.9140625 15.17578125 C-2.46826026 10.15254526 -1.22816975 5.08015669 0 0 Z " fill="#FCFDFF" transform="translate(39,23)"/>
<path d="M0 0 C6.86036401 0.65965039 13.34443923 2.2362764 20 4 C19.0026554 11.04007955 17.7758018 17.43901392 15 24 C8.31816637 22.9559635 2.2534035 21.5957524 -4 19 C-3.00318287 12.54189755 -1.98363508 6.23428168 0 0 Z " fill="#365AFF" transform="translate(57,53)"/>
</svg>
